# xmcd
#
# Track frame offsets: 
#        150
#        18111
#        28934
#        41646
#        52593
#        67544
#        79944
#        91297
#        105306
#        123443
#        137491
#        151580
#        168849
#
# Disc length: 2389 seconds
#
# Revision: 0
# Processed by: cddbd v1.5.2PL0 Copyright (c) Steve Scherf et al.
# Submitted via: ExactAudioCopy v1.0b1
#
DISCID=8709530d
DTITLE=Matuška Waldemar - Waldemar
DYEAR=1983
DGENRE=Country
TTITLE0=Dej si říct
TTITLE1=Léta pádí
TTITLE2=Nebudu spát
TTITLE3=Kvete mák a slunce pálí
TTITLE4=Zatím mně ve svých snech hýčkej
TTITLE5=Už se budí den
TTITLE6=Září bílý sníh
TTITLE7=Má co chtěla
TTITLE8=Tam nad tou hrází
TTITLE9=No lidi, to byste žasli nad tou krásou
TTITLE10=Jen se hádej
TTITLE11=Den jde spát
TTITLE12=Ten život za to stál
EXTD=
EXTT0=
EXTT1=
EXTT2=
EXTT3=
EXTT4=
EXTT5=
EXTT6=
EXTT7=
EXTT8=
EXTT9=
EXTT10=
EXTT11=
EXTT12=
PLAYORDER=
